<?xml version="1.0" standalone="no"?>
<!DOCTYPE svg PUBLIC "-//W3C//DTD SVG 20010904//EN"
 "http://www.w3.org/TR/2001/REC-SVG-20010904/DTD/svg10.dtd">
<svg version="1.0" xmlns="http://www.w3.org/2000/svg"
 width="512.000000pt" height="512.000000pt" viewBox="0 0 512.000000 512.000000"
 preserveAspectRatio="xMidYMid meet">
<metadata>
Created by potrace 1.14, written by Peter Selinger 2001-2017
</metadata>
<g transform="translate(0.000000,512.000000) scale(0.100000,-0.100000)"
fill="#000000" stroke="none">
<path d="M0 2560 l0 -2560 2560 0 2560 0 0 2560 0 2560 -2560 0 -2560 0 0
-2560z m1668 2474 c358 -74 577 -396 633 -932 15 -149 7 -565 -15 -687 -96
-552 -359 -825 -795 -825 -443 0 -710 291 -798 870 -24 161 -24 559 0 720 76
496 282 780 622 855 85 18 261 18 353 -1z m1445 -726 c46 -62 151 -204 234
-315 l151 -203 233 315 234 314 173 1 c94 0 172 -2 172 -5 0 -2 -142 -196
-316 -430 -174 -234 -314 -431 -311 -438 2 -6 123 -172 267 -367 145 -195 294
-397 332 -448 l68 -92 -177 2 -177 3 -252 340 c-138 187 -255 340 -259 340 -4
0 -120 -153 -259 -340 l-252 -340 -178 -3 -178 -2 29 37 c17 21 173 231 347
466 l317 428 -232 312 c-128 172 -270 363 -316 425 l-83 112 175 0 175 0 83
-112z m-1405 -1764 c358 -74 577 -396 633 -932 15 -149 7 -565 -15 -687 -96
-552 -359 -825 -795 -825 -443 0 -710 291 -798 870 -24 161 -24 559 0 720 76
496 282 780 622 855 85 18 261 18 353 -1z m2070 0 c358 -74 577 -396 633 -932
15 -149 7 -565 -15 -687 -96 -552 -359 -825 -795 -825 -443 0 -710 291 -798
870 -24 161 -24 559 0 720 76 496 282 780 622 855 85 18 261 18 353 -1z"/>
<path d="M1410 4790 c-75 -16 -145 -57 -204 -120 -89 -96 -139 -220 -178 -437
-20 -113 -22 -161 -22 -413 0 -253 2 -299 23 -414 62 -348 182 -517 396 -557
185 -34 348 56 440 245 89 181 119 368 119 726 0 268 -12 390 -55 556 -49 194
-159 347 -282 392 -67 25 -173 35 -237 22z"/>
<path d="M1450 2300 c-75 -16 -145 -57 -204 -120 -89 -96 -139 -220 -178 -437
-20 -113 -22 -161 -22 -413 0 -253 2 -299 23 -414 62 -348 182 -517 396 -557
185 -34 348 56 440 245 89 181 119 368 119 726 0 268 -12 390 -55 556 -49 194
-159 347 -282 392 -67 25 -173 35 -237 22z"/>
<path d="M3520 2300 c-75 -16 -145 -57 -204 -120 -89 -96 -139 -220 -178 -437
-20 -113 -22 -161 -22 -413 0 -253 2 -299 23 -414 62 -348 182 -517 396 -557
185 -34 348 56 440 245 89 181 119 368 119 726 0 268 -12 390 -55 556 -49 194
-159 347 -282 392 -67 25 -173 35 -237 22z"/>
</g>
</svg>
